<?xml version="1.0"?>
<svg xmlns="http://www.w3.org/2000/svg" height="512px" viewBox="-84 -18 587 587.99867" width="512px"><path d="m116.035156 115.761719v-29.976563c0-5.515625-4.472656-9.992187-9.992187-9.992187h-29.972657v49.960937h29.972657c5.519531 0 9.992187-4.476562 9.992187-9.992187zm0 0" fill="#FFFFFF"/><path d="m116.035156 185.699219v-29.972657c0-5.519531-4.472656-9.992187-9.992187-9.992187h-29.972657v49.957031h29.972657c5.519531 0 9.992187-4.472656 9.992187-9.992187zm0 0" fill="#FFFFFF"/><path d="m374.546875 28.707031-28.707031-28.707031-27.90625 27.90625c-3.902344 3.902344-10.226563 3.902344-14.128906 0l-27.90625-27.90625-27.90625 27.90625c-3.902344 3.902344-10.222657 3.902344-14.125 0l-27.90625-27.90625-27.90625 27.90625c-3.902344 3.902344-10.226563 3.902344-14.128907 0l-27.90625-27.90625-27.90625 27.90625c-3.902343 3.902344-10.226562 3.902344-14.128906 0l-27.90625-27.90625-28.707031 28.707031c-3.613282 3.613281-9.371094 3.910157-13.347656.695313l-27.886719-22.546875v537.539062l27.90625-22.570312c3.976562-3.214844 9.734375-2.910157 13.347656.699219l28.6875 28.726562 27.90625-27.90625c3.902344-3.898438 10.226563-3.898438 14.128906 0l27.90625 27.90625 27.90625-27.90625c3.902344-3.898438 10.226563-3.898438 14.128907 0l27.90625 27.90625 27.90625-27.90625c3.902343-3.898438 10.222656-3.898438 14.125 0l27.90625 27.90625 27.90625-27.90625c3.902343-3.898438 10.226562-3.898438 14.128906 0l27.90625 27.90625 28.6875-28.6875c3.613281-3.609375 9.375-3.914062 13.347656-.699219l27.90625 22.53125v-537.539062l-27.886719 22.578125c-3.980469 3.210937-9.738281 2.890625-13.347656-.726563zm-318.460937 107.035157v-69.9375c0-5.519532 4.476562-9.992188 9.992187-9.992188h39.964844c16.554687 0 29.976562 13.421875 29.976562 29.972656v29.976563c-.023437 7.394531-2.804687 14.523437-7.792969 19.980469 4.988282 5.464843 7.769532 12.589843 7.792969 19.984374v29.972657c0 16.554687-13.421875 29.976562-29.976562 29.976562h-39.964844c-5.515625 0-9.992187-4.472656-9.992187-9.992187zm0 119.898437h19.984374v19.984375h-19.984374zm119.898437 179.847656h-119.898437v-19.984375h119.898437zm0-39.964843h-119.898437v-19.984376h119.898437zm0-39.96875h-119.898437v-19.980469h119.898437zm0-39.964844h-119.898437v-19.984375h119.898437zm0-39.964844h-79.929687v-19.984375h79.929687zm0-59.949219h-19.980469v-159.863281h19.980469zm29.976563 0c-5.519532 0-9.992188-4.472656-9.992188-9.992187v-149.871094h19.980469v139.878906h49.960937v19.984375zm29.972656 79.929688h19.984375v19.984375h-19.984375zm119.898437 139.882812h-119.898437v-19.984375h119.898437zm0-39.964843h-119.898437v-19.984376h119.898437zm0-39.96875h-119.898437v-19.980469h119.898437zm0-39.964844h-79.933593v-19.984375h79.933593zm0-39.964844h-119.898437v-19.984375h119.898437zm0-59.949219h-59.949219c-5.519531 0-9.992187-4.472656-9.992187-9.992187v-149.871094h19.984375v139.878906h49.957031zm0 0" fill="#FFFFFF"/></svg>
